<mxfile host="65bd71144e">
    <diagram id="Fu2nkoHtEZ3IX-Ww9v6w" name="Page-1">
        <mxGraphModel dx="2133" dy="1895" grid="1" gridSize="10" guides="1" tooltips="1" connect="1" arrows="1" fold="1" page="1" pageScale="1" pageWidth="850" pageHeight="1100" math="0" shadow="0">
            <root>
                <mxCell id="0"/>
                <mxCell id="1" parent="0"/>
                <mxCell id="2" value="Frontend" style="swimlane;whiteSpace=wrap;html=1;" parent="1" vertex="1">
                    <mxGeometry x="-300" y="50" width="1350" height="1070" as="geometry"/>
                </mxCell>
                <mxCell id="8" style="edgeStyle=none;html=1;entryX=0.5;entryY=0;entryDx=0;entryDy=0;" parent="2" source="6" target="13" edge="1">
                    <mxGeometry relative="1" as="geometry">
                        <mxPoint x="460" y="140" as="targetPoint"/>
                    </mxGeometry>
                </mxCell>
                <mxCell id="6" value="" style="ellipse;fillColor=strokeColor;html=1;" parent="2" vertex="1">
                    <mxGeometry x="445" y="70" width="30" height="30" as="geometry"/>
                </mxCell>
                <mxCell id="16" style="edgeStyle=none;html=1;entryX=0.5;entryY=0;entryDx=0;entryDy=0;" parent="2" source="13" target="15" edge="1">
                    <mxGeometry relative="1" as="geometry"/>
                </mxCell>
                <mxCell id="13" value="Restaurant suchen" style="html=1;align=center;verticalAlign=top;rounded=1;absoluteArcSize=1;arcSize=10;dashed=0;whiteSpace=wrap;" parent="2" vertex="1">
                    <mxGeometry x="390" y="210" width="140" height="40" as="geometry"/>
                </mxCell>
                <mxCell id="18" style="edgeStyle=none;html=1;entryX=1;entryY=0.5;entryDx=0;entryDy=0;" parent="2" source="15" target="13" edge="1">
                    <mxGeometry relative="1" as="geometry">
                        <Array as="points">
                            <mxPoint x="585" y="355"/>
                            <mxPoint x="585" y="230"/>
                        </Array>
                    </mxGeometry>
                </mxCell>
                <mxCell id="24" value="[Ist nicht das richtige Restaurant]" style="edgeLabel;html=1;align=center;verticalAlign=middle;resizable=0;points=[];" parent="18" vertex="1" connectable="0">
                    <mxGeometry x="-0.1446" y="-1" relative="1" as="geometry">
                        <mxPoint as="offset"/>
                    </mxGeometry>
                </mxCell>
                <mxCell id="20" style="edgeStyle=none;html=1;" parent="2" source="15" target="19" edge="1">
                    <mxGeometry relative="1" as="geometry"/>
                </mxCell>
                <mxCell id="23" value="[Restaurant gefunden]" style="edgeLabel;html=1;align=center;verticalAlign=middle;resizable=0;points=[];" parent="20" vertex="1" connectable="0">
                    <mxGeometry x="-0.1547" y="2" relative="1" as="geometry">
                        <mxPoint as="offset"/>
                    </mxGeometry>
                </mxCell>
                <mxCell id="15" value="" style="rhombus;" parent="2" vertex="1">
                    <mxGeometry x="445" y="340" width="30" height="30" as="geometry"/>
                </mxCell>
                <mxCell id="26" style="edgeStyle=none;html=1;entryX=0.5;entryY=0;entryDx=0;entryDy=0;" parent="2" source="19" target="25" edge="1">
                    <mxGeometry relative="1" as="geometry"/>
                </mxCell>
                <mxCell id="19" value="Nach Gericht suchen" style="html=1;align=center;verticalAlign=top;rounded=1;absoluteArcSize=1;arcSize=10;dashed=0;whiteSpace=wrap;" parent="2" vertex="1">
                    <mxGeometry x="390" y="440" width="140" height="40" as="geometry"/>
                </mxCell>
                <mxCell id="28" style="edgeStyle=none;html=1;entryX=0.5;entryY=0;entryDx=0;entryDy=0;" parent="2" source="25" target="27" edge="1">
                    <mxGeometry relative="1" as="geometry">
                        <mxPoint x="458.8000000000002" y="661.5449999999998" as="targetPoint"/>
                    </mxGeometry>
                </mxCell>
                <mxCell id="31" value="[Gericht gefunden]&amp;nbsp;" style="edgeLabel;html=1;align=center;verticalAlign=middle;resizable=0;points=[];" parent="28" vertex="1" connectable="0">
                    <mxGeometry x="-0.3" y="-3" relative="1" as="geometry">
                        <mxPoint as="offset"/>
                    </mxGeometry>
                </mxCell>
                <mxCell id="30" style="edgeStyle=none;html=1;entryX=1;entryY=0.5;entryDx=0;entryDy=0;" parent="2" source="25" target="19" edge="1">
                    <mxGeometry relative="1" as="geometry">
                        <Array as="points">
                            <mxPoint x="595" y="575"/>
                            <mxPoint x="595" y="460"/>
                        </Array>
                    </mxGeometry>
                </mxCell>
                <mxCell id="32" value="[Weiter nach Gericht suche]" style="edgeLabel;html=1;align=center;verticalAlign=middle;resizable=0;points=[];" parent="30" vertex="1" connectable="0">
                    <mxGeometry x="0.0367" y="2" relative="1" as="geometry">
                        <mxPoint as="offset"/>
                    </mxGeometry>
                </mxCell>
                <mxCell id="25" value="" style="rhombus;" parent="2" vertex="1">
                    <mxGeometry x="445" y="560" width="30" height="30" as="geometry"/>
                </mxCell>
                <mxCell id="27" value="Gericht zum Warenkorb hinzufÃ¼gen" style="html=1;align=center;verticalAlign=top;rounded=1;absoluteArcSize=1;arcSize=10;dashed=0;whiteSpace=wrap;" parent="2" vertex="1">
                    <mxGeometry x="390" y="650" width="140" height="40" as="geometry"/>
                </mxCell>
                <mxCell id="33" value="" style="rhombus;" parent="2" vertex="1">
                    <mxGeometry x="415" y="900" width="30" height="30" as="geometry"/>
                </mxCell>
                <mxCell id="47" value="Nach Gericht suchen" style="html=1;align=center;verticalAlign=top;rounded=1;absoluteArcSize=1;arcSize=10;dashed=0;whiteSpace=wrap;" parent="2" vertex="1">
                    <mxGeometry x="150" y="894.9999999999999" width="140" height="40" as="geometry"/>
                </mxCell>
                <mxCell id="48" value="" style="edgeStyle=none;html=1;" parent="2" source="33" target="47" edge="1">
                    <mxGeometry relative="1" as="geometry">
                        <mxPoint x="281" y="959" as="sourcePoint"/>
                        <mxPoint x="150" y="525" as="targetPoint"/>
                        <Array as="points">
                            <mxPoint x="310" y="915"/>
                        </Array>
                    </mxGeometry>
                </mxCell>
                <mxCell id="49" value="[Weiter suchen]" style="edgeLabel;html=1;align=center;verticalAlign=middle;resizable=0;points=[];" parent="48" vertex="1" connectable="0">
                    <mxGeometry x="-0.0214" relative="1" as="geometry">
                        <mxPoint as="offset"/>
                    </mxGeometry>
                </mxCell>
                <mxCell id="54" style="edgeStyle=none;html=1;entryX=0;entryY=0.5;entryDx=0;entryDy=0;" parent="2" source="50" target="27" edge="1">
                    <mxGeometry relative="1" as="geometry">
                        <Array as="points">
                            <mxPoint x="220" y="670"/>
                        </Array>
                    </mxGeometry>
                </mxCell>
                <mxCell id="55" value="&lt;span style=&quot;color: rgb(0, 0, 0);&quot;&gt;[Gericht gefunden]&lt;/span&gt;" style="edgeLabel;html=1;align=center;verticalAlign=middle;resizable=0;points=[];" parent="54" vertex="1" connectable="0">
                    <mxGeometry x="-0.0775" y="3" relative="1" as="geometry">
                        <mxPoint as="offset"/>
                    </mxGeometry>
                </mxCell>
                <mxCell id="57" style="edgeStyle=none;html=1;entryX=0;entryY=0.5;entryDx=0;entryDy=0;" parent="2" source="50" target="47" edge="1">
                    <mxGeometry relative="1" as="geometry">
                        <Array as="points">
                            <mxPoint x="110" y="740"/>
                            <mxPoint x="110" y="915"/>
                        </Array>
                    </mxGeometry>
                </mxCell>
                <mxCell id="58" value="[Gericht nicht gefunden]" style="edgeLabel;html=1;align=center;verticalAlign=middle;resizable=0;points=[];" parent="57" vertex="1" connectable="0">
                    <mxGeometry x="-0.5363" y="-1" relative="1" as="geometry">
                        <mxPoint as="offset"/>
                    </mxGeometry>
                </mxCell>
                <mxCell id="50" value="" style="rhombus;" parent="2" vertex="1">
                    <mxGeometry x="205" y="725" width="30" height="30" as="geometry"/>
                </mxCell>
                <mxCell id="51" style="edgeStyle=none;html=1;entryX=0.5;entryY=1;entryDx=0;entryDy=0;" parent="2" source="47" target="50" edge="1">
                    <mxGeometry relative="1" as="geometry">
                        <mxPoint x="160" y="810" as="targetPoint"/>
                    </mxGeometry>
                </mxCell>
                <mxCell id="79" style="edgeStyle=none;html=1;entryX=0.5;entryY=0;entryDx=0;entryDy=0;" parent="2" source="59" target="33" edge="1">
                    <mxGeometry relative="1" as="geometry"/>
                </mxCell>
                <mxCell id="59" value="" style="html=1;points=[];perimeter=orthogonalPerimeter;fillColor=strokeColor;rotation=90;" parent="2" vertex="1">
                    <mxGeometry x="457.5" y="710" width="5" height="80" as="geometry"/>
                </mxCell>
                <mxCell id="60" style="edgeStyle=none;html=1;entryX=0.517;entryY=0.51;entryDx=0;entryDy=0;entryPerimeter=0;" parent="2" source="27" target="59" edge="1">
                    <mxGeometry relative="1" as="geometry"/>
                </mxCell>
                <mxCell id="3" value="Backend" style="swimlane;whiteSpace=wrap;html=1;" parent="2" vertex="1">
                    <mxGeometry x="760" width="590" height="1070" as="geometry"/>
                </mxCell>
                <mxCell id="70" style="edgeStyle=none;html=1;entryX=0.5;entryY=1;entryDx=0;entryDy=0;" parent="3" source="61" target="69" edge="1">
                    <mxGeometry relative="1" as="geometry"/>
                </mxCell>
                <mxCell id="61" value="Eingabe wird geprÃ¼ft&amp;nbsp;" style="html=1;align=center;verticalAlign=top;rounded=1;absoluteArcSize=1;arcSize=10;dashed=0;whiteSpace=wrap;" parent="3" vertex="1">
                    <mxGeometry x="20" y="770" width="140" height="40" as="geometry"/>
                </mxCell>
                <mxCell id="68" style="edgeStyle=none;html=1;exitX=0.5;exitY=0;exitDx=0;exitDy=0;" parent="3" source="65" target="67" edge="1">
                    <mxGeometry relative="1" as="geometry">
                        <Array as="points">
                            <mxPoint x="90" y="480"/>
                        </Array>
                    </mxGeometry>
                </mxCell>
                <mxCell id="65" value="Gericht wird zum Warenkorb hinzugefÃ¼gt" style="html=1;align=center;verticalAlign=top;rounded=1;absoluteArcSize=1;arcSize=10;dashed=0;whiteSpace=wrap;" parent="3" vertex="1">
                    <mxGeometry x="20" y="570" width="140" height="40" as="geometry"/>
                </mxCell>
                <mxCell id="84" style="edgeStyle=none;html=1;entryX=0.5;entryY=0;entryDx=0;entryDy=0;" parent="3" source="67" target="83" edge="1">
                    <mxGeometry relative="1" as="geometry">
                        <Array as="points">
                            <mxPoint x="500" y="480"/>
                        </Array>
                    </mxGeometry>
                </mxCell>
                <mxCell id="67" value="Gericht wird zur OrderItem Liste hinzugefÃ¼gt&lt;div&gt;&lt;br&gt;&lt;/div&gt;" style="html=1;align=center;verticalAlign=top;rounded=1;absoluteArcSize=1;arcSize=10;dashed=0;whiteSpace=wrap;" parent="3" vertex="1">
                    <mxGeometry x="160" y="450" width="140" height="60" as="geometry"/>
                </mxCell>
                <mxCell id="74" style="edgeStyle=none;html=1;entryX=0.5;entryY=1;entryDx=0;entryDy=0;" parent="3" source="69" target="65" edge="1">
                    <mxGeometry relative="1" as="geometry"/>
                </mxCell>
                <mxCell id="76" value="[Warenkorb bereits vorhanden]" style="edgeLabel;html=1;align=center;verticalAlign=middle;resizable=0;points=[];" parent="74" vertex="1" connectable="0">
                    <mxGeometry x="-0.0253" y="2" relative="1" as="geometry">
                        <mxPoint as="offset"/>
                    </mxGeometry>
                </mxCell>
                <mxCell id="75" style="edgeStyle=none;html=1;entryX=0.5;entryY=1;entryDx=0;entryDy=0;" parent="3" source="69" target="72" edge="1">
                    <mxGeometry relative="1" as="geometry">
                        <Array as="points">
                            <mxPoint x="330" y="675"/>
                        </Array>
                    </mxGeometry>
                </mxCell>
                <mxCell id="77" value="[Es ist eine komplett neue B&lt;span style=&quot;background-color: light-dark(#ffffff, var(--ge-dark-color, #121212));&quot;&gt;estellung]&lt;/span&gt;" style="edgeLabel;html=1;align=center;verticalAlign=middle;resizable=0;points=[];" parent="75" vertex="1" connectable="0">
                    <mxGeometry x="0.1173" y="-2" relative="1" as="geometry">
                        <mxPoint as="offset"/>
                    </mxGeometry>
                </mxCell>
                <mxCell id="69" value="" style="rhombus;" parent="3" vertex="1">
                    <mxGeometry x="75" y="660" width="30" height="30" as="geometry"/>
                </mxCell>
                <mxCell id="71" style="edgeStyle=none;html=1;exitX=0.5;exitY=0;exitDx=0;exitDy=0;entryX=1;entryY=0.5;entryDx=0;entryDy=0;" parent="3" source="72" target="67" edge="1">
                    <mxGeometry relative="1" as="geometry">
                        <mxPoint x="330" y="550" as="targetPoint"/>
                        <Array as="points">
                            <mxPoint x="330" y="480"/>
                        </Array>
                    </mxGeometry>
                </mxCell>
                <mxCell id="72" value="Warenkorb wird angelegt" style="html=1;align=center;verticalAlign=top;rounded=1;absoluteArcSize=1;arcSize=10;dashed=0;whiteSpace=wrap;" parent="3" vertex="1">
                    <mxGeometry x="260" y="570" width="140" height="40" as="geometry"/>
                </mxCell>
                <mxCell id="89" style="edgeStyle=none;html=1;entryX=0.5;entryY=0;entryDx=0;entryDy=0;" parent="3" source="83" target="85" edge="1">
                    <mxGeometry relative="1" as="geometry"/>
                </mxCell>
                <mxCell id="83" value=":OderItem" style="html=1;whiteSpace=wrap;" parent="3" vertex="1">
                    <mxGeometry x="445" y="730" width="110" height="50" as="geometry"/>
                </mxCell>
                <mxCell id="85" value="OrderItem zu Lieferant senden" style="html=1;align=center;verticalAlign=top;rounded=1;absoluteArcSize=1;arcSize=10;dashed=0;whiteSpace=wrap;" parent="3" vertex="1">
                    <mxGeometry x="430" y="895" width="140" height="40" as="geometry"/>
                </mxCell>
                <mxCell id="62" style="edgeStyle=none;html=1;entryX=0.5;entryY=1;entryDx=0;entryDy=0;exitX=0.909;exitY=0.151;exitDx=0;exitDy=0;exitPerimeter=0;" parent="2" source="59" target="61" edge="1">
                    <mxGeometry relative="1" as="geometry">
                        <Array as="points">
                            <mxPoint x="488" y="860"/>
                            <mxPoint x="850" y="860"/>
                        </Array>
                    </mxGeometry>
                </mxCell>
                <mxCell id="82" value="[Bestellung Abgeben]" style="edgeStyle=none;html=1;entryX=0;entryY=0.5;entryDx=0;entryDy=0;" parent="2" source="33" target="85" edge="1">
                    <mxGeometry relative="1" as="geometry">
                        <mxPoint x="610" y="910" as="targetPoint"/>
                        <Array as="points"/>
                    </mxGeometry>
                </mxCell>
                <mxCell id="4" value="Database" style="swimlane;whiteSpace=wrap;html=1;" parent="1" vertex="1">
                    <mxGeometry x="1050" y="50" width="380" height="1070" as="geometry"/>
                </mxCell>
                <mxCell id="92" style="edgeStyle=none;html=1;entryX=0.5;entryY=1;entryDx=0;entryDy=0;" parent="4" source="63" target="109" edge="1">
                    <mxGeometry relative="1" as="geometry">
                        <mxPoint x="250" y="920.0000000000005" as="targetPoint"/>
                    </mxGeometry>
                </mxCell>
                <mxCell id="63" value="OrderItem wird angelegt" style="html=1;align=center;verticalAlign=top;rounded=1;absoluteArcSize=1;arcSize=10;dashed=0;whiteSpace=wrap;" parent="4" vertex="1">
                    <mxGeometry x="180" y="895" width="140" height="40" as="geometry"/>
                </mxCell>
                <mxCell id="118" style="edgeStyle=none;html=1;entryX=0;entryY=0.5;entryDx=0;entryDy=0;" parent="4" source="80" target="117" edge="1">
                    <mxGeometry relative="1" as="geometry"/>
                </mxCell>
                <mxCell id="80" value="Neuer Eintrag fÃ¼r Warenkorb" style="html=1;align=center;verticalAlign=top;rounded=1;absoluteArcSize=1;arcSize=10;dashed=0;whiteSpace=wrap;" parent="4" vertex="1">
                    <mxGeometry x="50" y="390" width="140" height="40" as="geometry"/>
                </mxCell>
                <mxCell id="109" value="" style="ellipse;html=1;shape=endState;fillColor=strokeColor;" parent="4" vertex="1">
                    <mxGeometry x="235" y="800" width="30" height="30" as="geometry"/>
                </mxCell>
                <mxCell id="117" value="" style="ellipse;html=1;shape=endState;fillColor=strokeColor;" parent="4" vertex="1">
                    <mxGeometry x="250" y="395" width="30" height="30" as="geometry"/>
                </mxCell>
                <mxCell id="93" value="&amp;lt;&amp;lt;precondition&amp;gt;&amp;gt; Benutzer ist bereits&amp;nbsp;&lt;span class=&quot;yKMVIe&quot; aria-level=&quot;1&quot; role=&quot;heading&quot;&gt;registriert/eingeloggt&lt;/span&gt;&lt;div&gt;&lt;span class=&quot;yKMVIe&quot; aria-level=&quot;1&quot; role=&quot;heading&quot;&gt;&lt;span style=&quot;color: rgb(0, 0, 0);&quot;&gt;&amp;lt;&amp;lt;precondition&amp;gt;&amp;gt; Gericht existiert&lt;/span&gt;&lt;/span&gt;&lt;/div&gt;&lt;div&gt;&lt;span class=&quot;yKMVIe&quot; aria-level=&quot;1&quot; role=&quot;heading&quot;&gt;&lt;span style=&quot;color: rgb(0, 0, 0);&quot;&gt;&amp;lt;&amp;lt;precondition&amp;gt;&amp;gt; Restaurant existiert&lt;/span&gt;&lt;/span&gt;&lt;/div&gt;" style="text;html=1;align=center;verticalAlign=middle;resizable=0;points=[];autosize=1;strokeColor=none;fillColor=none;" parent="1" vertex="1">
                    <mxGeometry x="-440" y="-17" width="340" height="60" as="geometry"/>
                </mxCell>
                <mxCell id="94" value="&amp;lt;&amp;lt;postconditions&amp;gt;&amp;gt; Ein neues OrderItem wurde erstellt&lt;div&gt;&lt;span style=&quot;color: rgb(0, 0, 0);&quot;&gt;&amp;lt;&amp;lt;postconditions&amp;gt;&amp;gt; OrderItem ist zum Benutzer zuzuordnen&lt;/span&gt;&lt;/div&gt;" style="text;html=1;align=center;verticalAlign=middle;resizable=0;points=[];autosize=1;strokeColor=none;fillColor=none;" parent="1" vertex="1">
                    <mxGeometry x="-110" y="-7" width="340" height="40" as="geometry"/>
                </mxCell>
                <mxCell id="110" value="" style="endArrow=classic;html=1;exitX=0.5;exitY=0;exitDx=0;exitDy=0;entryX=0;entryY=0.5;entryDx=0;entryDy=0;" parent="1" source="67" target="80" edge="1">
                    <mxGeometry width="50" height="50" relative="1" as="geometry">
                        <mxPoint x="940" y="770" as="sourcePoint"/>
                        <mxPoint x="990" y="720" as="targetPoint"/>
                        <Array as="points">
                            <mxPoint x="690" y="460"/>
                        </Array>
                    </mxGeometry>
                </mxCell>
                <mxCell id="119" style="edgeStyle=none;html=1;entryX=0;entryY=0.5;entryDx=0;entryDy=0;" parent="1" source="85" target="63" edge="1">
                    <mxGeometry relative="1" as="geometry"/>
                </mxCell>
            </root>
        </mxGraphModel>
    </diagram>
</mxfile>